<?xml version="1.0" encoding="utf-8"?>
<!-- Generator: Adobe Illustrator 19.2.1, SVG Export Plug-In . SVG Version: 6.00 Build 0)  -->
<svg version="1.1" id="Layer_1" xmlns="http://www.w3.org/2000/svg" xmlns:xlink="http://www.w3.org/1999/xlink" x="0px" y="0px"
	 viewBox="0 0 612 200" style="enable-background:new 0 0 612 200;" xml:space="preserve">
<style type="text/css">
	.st0{clip-path:url(#SVGID_2_);}
	.st1{clip-path:url(#SVGID_4_);fill:#D1CECC;}
	.st2{clip-path:url(#SVGID_6_);}
	.st3{clip-path:url(#SVGID_8_);fill:#D1CECC;}
	.st4{clip-path:url(#SVGID_10_);}
	.st5{clip-path:url(#SVGID_12_);fill:#FFFFFF;}
	.st6{clip-path:url(#SVGID_14_);}
	.st7{clip-path:url(#SVGID_16_);fill:#FFFFFF;}
</style>
<g>
	<defs>
		<path id="SVGID_1_" d="M548,93.3h-174c-4.5,0-8.1,3.6-8.1,8.1c0,4.5,3.6,8.1,8.1,8.1h174l8.1-8.1L548,93.3"/>
	</defs>
	<clipPath id="SVGID_2_">
		<use xlink:href="#SVGID_1_"  style="overflow:visible;"/>
	</clipPath>
	<g class="st0">
		<defs>
			<rect id="SVGID_3_" x="-1870.7" y="-4320.8" width="4033.5" height="7174.3"/>
		</defs>
		<clipPath id="SVGID_4_">
			<use xlink:href="#SVGID_3_"  style="overflow:visible;"/>
		</clipPath>
		<rect x="312.2" y="39.5" class="st1" width="297.7" height="123.7"/>
	</g>
</g>
<g>
	<defs>
		<path id="SVGID_5_" d="M504.3,30c-2.1,0-4.1,0.8-5.7,2.4c-3.2,3.2-3.2,8.2,0,11.4l57.5,57.6l-57.5,57.6c-3.2,3.2-3.2,8.2,0,11.4
			c1.6,1.6,3.6,2.4,5.7,2.4c2.1,0,4.1-0.8,5.7-2.4l63.2-63.3c3.2-3.2,3.2-8.2,0-11.4L510,32.4C508.4,30.8,506.3,30,504.3,30"/>
	</defs>
	<clipPath id="SVGID_6_">
		<use xlink:href="#SVGID_5_"  style="overflow:visible;"/>
	</clipPath>
	<g class="st2">
		<defs>
			<rect id="SVGID_7_" x="-1870.7" y="-4320.8" width="4033.5" height="7174.3"/>
		</defs>
		<clipPath id="SVGID_8_">
			<use xlink:href="#SVGID_7_"  style="overflow:visible;"/>
		</clipPath>
		<rect x="442.4" y="-23.8" class="st3" width="186.9" height="250.2"/>
	</g>
</g>
<g>
	<defs>
		<path id="SVGID_9_" d="M555.8,106.7H371.4c-4.5,0-8.1-3.6-8.1-8.1c0-4.5,3.6-8.1,8.1-8.1h184.4c4.5,0,8.1,3.6,8.1,8.1
			C563.8,103.1,560.2,106.7,555.8,106.7"/>
	</defs>
	<clipPath id="SVGID_10_">
		<use xlink:href="#SVGID_9_"  style="overflow:visible;"/>
	</clipPath>
	<g class="st4">
		<defs>
			<rect id="SVGID_11_" x="-1870.7" y="-4320.8" width="4033.5" height="7174.3"/>
		</defs>
		<clipPath id="SVGID_12_">
			<use xlink:href="#SVGID_11_"  style="overflow:visible;"/>
		</clipPath>
		<rect x="309.5" y="36.8" class="st5" width="308.1" height="123.7"/>
	</g>
</g>
<g>
	<defs>
		<path id="SVGID_13_" d="M501.6,170c-2.1,0-4.1-0.8-5.7-2.4c-3.2-3.2-3.2-8.2,0-11.4l57.5-57.6l-57.5-57.5c-3.2-3.2-3.2-8.3,0-11.4
			c3.2-3.2,8.3-3.2,11.4,0L570.5,93c3.2,3.2,3.2,8.2,0,11.4l-63.2,63.3C505.7,169.2,503.7,170,501.6,170"/>
	</defs>
	<clipPath id="SVGID_14_">
		<use xlink:href="#SVGID_13_"  style="overflow:visible;"/>
	</clipPath>
	<g class="st6">
		<defs>
			<rect id="SVGID_15_" x="-1870.7" y="-4320.8" width="4033.5" height="7174.3"/>
		</defs>
		<clipPath id="SVGID_16_">
			<use xlink:href="#SVGID_15_"  style="overflow:visible;"/>
		</clipPath>
		<rect x="439.7" y="-26.4" class="st7" width="186.9" height="250.2"/>
	</g>
</g>
</svg>
