<?xml version="1.0" encoding="utf-8"?>
<!-- Generator: Adobe Illustrator 18.1.0, SVG Export Plug-In . SVG Version: 6.00 Build 0)  -->
<!DOCTYPE svg PUBLIC "-//W3C//DTD SVG 1.1//EN" "http://www.w3.org/Graphics/SVG/1.1/DTD/svg11.dtd">
<svg version="1.1" id="Layer_1" xmlns="http://www.w3.org/2000/svg" xmlns:xlink="http://www.w3.org/1999/xlink" x="0px" y="0px"
	 viewBox="0 0 19.1 19.1" style="enable-background:new 0 0 19.1 19.1;" xml:space="preserve">
<style type="text/css">
	.st0{fill:#847C78;}
</style>
<g>
	<g>
		<path class="st0" d="M9.6,19.1C4.3,19.1,0,14.8,0,9.6S4.3,0,9.6,0s9.6,4.3,9.6,9.6S14.8,19.1,9.6,19.1z M9.6,1C4.8,1,1,4.8,1,9.6
			c0,4.7,3.8,8.6,8.6,8.6c4.7,0,8.6-3.8,8.6-8.6C18.1,4.8,14.3,1,9.6,1z"/>
	</g>
	<polygon class="st0" points="6,8.8 9.6,12.3 13.1,8.8 12.3,8 9.6,10.7 6.8,8 	"/>
</g>
</svg>
