<?xml version="1.0" encoding="utf-8"?>
<!-- Generator: Adobe Illustrator 19.2.1, SVG Export Plug-In . SVG Version: 6.00 Build 0)  -->
<svg version="1.1" id="Layer_1" xmlns="http://www.w3.org/2000/svg" xmlns:xlink="http://www.w3.org/1999/xlink" x="0px" y="0px"
	 viewBox="0 0 579.9 68.6" style="enable-background:new 0 0 579.9 68.6;" xml:space="preserve">
<style type="text/css">
	.st0{clip-path:url(#SVGID_2_);fill:#594B4A;}
	.st1{fill:#594B4A;}
	.st2{clip-path:url(#SVGID_4_);fill:#594B4A;}
</style>
<g>
	<g>
		<defs>
			<rect id="SVGID_1_" width="579.9" height="68.6"/>
		</defs>
		<clipPath id="SVGID_2_">
			<use xlink:href="#SVGID_1_"  style="overflow:visible;"/>
		</clipPath>
		<path class="st0" d="M25,30.1l-0.7-0.2c-10.3-2.8-15.2-5-15.2-13.2c0-6.9,4.2-10.9,11.2-10.9c0.1,0,14.7,0.1,18.9,12.1l0.2,0.5H44
			V0h-4.7l-1.8,6.8c-4.4-4.3-10.2-6.7-16.5-6.7C8.7,0.1,0.2,7.8,0.2,18.8c0,12.4,10.4,16,21.9,18.9c11.5,2.9,16.5,5.1,16.5,13.7
			c0,7.5-6.1,11-11.7,11c-9.7,0-16.7-3.8-22.2-11.9l-0.2-0.4H0v18.5h4.7l2.1-8.1c5.7,5.5,11.9,8.1,19.6,8.1
			c12.3,0,21.2-8.4,21.2-19.9C47.6,36.1,37.1,33.3,25,30.1"/>
		<path class="st0" d="M57.1,14.3h4.5l0.2-1.4c1.5-7.4,1.8-7.4,7.1-7.4l11.9,0v57.7h-6.5v5.5h22.4v-5.5h-6.2V5.5h11.6
			c5.5,0,6,0,7.4,7.4l0.2,1.4h4.5V0H57.1V14.3z"/>
		<path class="st0" d="M163.1,14.3h4.5l0.2-1.4c1.5-7.4,1.8-7.4,7.1-7.4l11.9,0v57.7h-6.3v5.5h22.4v-5.5h-6.3V5.5h11.6
			c5.5,0,6,0,7.4,7.4l0.2,1.4h4.5V0h-57.1V14.3z"/>
	</g>
	<polygon class="st1" points="127.4,0 127.4,5.5 133.8,5.5 133.8,63.2 127.4,63.2 127.4,68.6 149.8,68.6 149.8,63.2 143.5,63.2 
		143.5,5.5 149.8,5.5 149.8,0 	"/>
	<polygon class="st1" points="341.9,0 341.9,5.5 348.3,5.5 348.3,33.5 316.4,33.5 316.4,5.5 322.4,5.5 322.4,0 300,0 300,5.5 
		306.7,5.5 306.7,63.2 300.4,63.2 300.4,68.6 322.9,68.6 322.9,63.2 316.4,63.2 316.4,39 348.3,39 348.3,63.2 341.9,63.2 
		341.9,68.6 364.3,68.6 364.3,63.2 358.1,63.2 358.1,5.5 364.3,5.5 364.3,0 	"/>
	<polygon class="st1" points="481.4,0 481.4,5.5 487.8,5.5 487.8,63.2 481.4,63.2 481.4,68.6 503.8,68.6 503.8,63.2 497.5,63.2 
		497.5,5.5 503.8,5.5 503.8,0 	"/>
	<polygon class="st1" points="557.5,0 557.5,5.5 562.7,5.5 548.2,26.4 534.2,5.5 539.5,5.5 539.5,0 517,0 517,5.5 523.4,5.5 
		543,34.5 523.7,63.2 516.7,63.2 516.7,68.6 539.1,68.6 539.1,63.2 532,63.2 547,40.7 561.9,63.2 556.2,63.2 556.2,68.6 578.7,68.6 
		578.7,63.2 572.6,63.2 552.4,32.6 571,5.5 579.9,5.5 579.9,0 	"/>
	<g>
		<defs>
			<rect id="SVGID_3_" width="579.9" height="68.6"/>
		</defs>
		<clipPath id="SVGID_4_">
			<use xlink:href="#SVGID_3_"  style="overflow:visible;"/>
		</clipPath>
		<path class="st2" d="M416.8,5.5h6.8v57.7h-6.8v5.5h22.5v-5.5h-5.9V39h10.4c3.9,0,4.1,0.5,5.5,4.4l0.2,0.4l0.1,0.6h4.5V27.3h-4.5
			l-0.1,0.6c-0.1,0.4-0.3,0.7-0.4,1c-1.2,3.2-1.7,4.6-5.3,4.6h-10.4v-28h23.4c4.5,0,5.5,1.4,8,7.7l0.1,0.6h5.2V0h-53.3V5.5z"/>
		<path class="st2" d="M279.5,41.6c-2,13.3-9.4,20.9-20.3,20.9c-13.2,0-21.3-11-21.3-28.7c0-16.8,8-27.7,20.3-27.7
			c12,0,18,7.6,20.9,14l0.2,0.5h4.7V0h-5.2l-1.9,7.2C272.2,2.4,266,0,258.4,0c-17.6,0-30.9,14.8-30.9,34.4c0,10,3,18.6,8.6,24.9
			c5.5,6.1,13.2,9.4,21.8,9.4c15.5,0,25.3-9.5,27.5-26.9l0.1-0.9h-6L279.5,41.6z"/>
	</g>
</g>
</svg>
