<?xml version="1.0" encoding="utf-8"?>
<!-- Generator: Adobe Illustrator 19.2.1, SVG Export Plug-In . SVG Version: 6.00 Build 0)  -->
<svg version="1.1" id="Layer_1" xmlns="http://www.w3.org/2000/svg" xmlns:xlink="http://www.w3.org/1999/xlink" x="0px" y="0px"
	 viewBox="0 0 300 200" style="enable-background:new 0 0 300 200;" xml:space="preserve">
<style type="text/css">
	.st0{clip-path:url(#SVGID_2_);}
	.st1{clip-path:url(#SVGID_4_);fill:#D1CECC;}
	.st2{clip-path:url(#SVGID_6_);}
	.st3{clip-path:url(#SVGID_8_);fill:#D1CECC;}
	.st4{clip-path:url(#SVGID_10_);}
	.st5{clip-path:url(#SVGID_12_);fill:#FFFFFF;}
	.st6{clip-path:url(#SVGID_14_);}
	.st7{clip-path:url(#SVGID_16_);fill:#FFFFFF;}
</style>
<g>
	<defs>
		<path id="SVGID_1_" d="M224.1,80.3h-174c-4.5,0-8.1,3.6-8.1,8.1c0,4.5,3.6,8.1,8.1,8.1h174l8.1-8.1L224.1,80.3"/>
	</defs>
	<clipPath id="SVGID_2_">
		<use xlink:href="#SVGID_1_"  style="overflow:visible;"/>
	</clipPath>
	<g class="st0">
		<defs>
			<rect id="SVGID_3_" x="-2194.7" y="-4333.8" width="4033.5" height="7174.3"/>
		</defs>
		<clipPath id="SVGID_4_">
			<use xlink:href="#SVGID_3_"  style="overflow:visible;"/>
		</clipPath>
		<rect x="-11.7" y="26.5" class="st1" width="297.7" height="123.7"/>
	</g>
</g>
<g>
	<defs>
		<path id="SVGID_5_" d="M180.3,17c-2.1,0-4.1,0.8-5.7,2.4c-3.2,3.2-3.2,8.2,0,11.4l57.5,57.6l-57.5,57.6c-3.2,3.2-3.2,8.2,0,11.4
			c1.6,1.6,3.6,2.4,5.7,2.4c2.1,0,4.1-0.8,5.7-2.4L249.3,94c3.2-3.2,3.2-8.2,0-11.4L186,19.4C184.5,17.8,182.4,17,180.3,17"/>
	</defs>
	<clipPath id="SVGID_6_">
		<use xlink:href="#SVGID_5_"  style="overflow:visible;"/>
	</clipPath>
	<g class="st2">
		<defs>
			<rect id="SVGID_7_" x="-2194.7" y="-4333.8" width="4033.5" height="7174.3"/>
		</defs>
		<clipPath id="SVGID_8_">
			<use xlink:href="#SVGID_7_"  style="overflow:visible;"/>
		</clipPath>
		<rect x="118.5" y="-36.8" class="st3" width="186.9" height="250.2"/>
	</g>
</g>
<g>
	<defs>
		<path id="SVGID_9_" d="M231.8,93.7H47.4c-4.5,0-8.1-3.6-8.1-8.1c0-4.5,3.6-8.1,8.1-8.1h184.4c4.5,0,8.1,3.6,8.1,8.1
			C239.9,90.1,236.3,93.7,231.8,93.7"/>
	</defs>
	<clipPath id="SVGID_10_">
		<use xlink:href="#SVGID_9_"  style="overflow:visible;"/>
	</clipPath>
	<g class="st4">
		<defs>
			<rect id="SVGID_11_" x="-2194.7" y="-4333.8" width="4033.5" height="7174.3"/>
		</defs>
		<clipPath id="SVGID_12_">
			<use xlink:href="#SVGID_11_"  style="overflow:visible;"/>
		</clipPath>
		<rect x="-14.4" y="23.8" class="st5" width="308.1" height="123.7"/>
	</g>
</g>
<g>
	<defs>
		<path id="SVGID_13_" d="M177.6,157c-2.1,0-4.1-0.8-5.7-2.4c-3.2-3.2-3.2-8.2,0-11.4l57.5-57.6l-57.5-57.5c-3.2-3.2-3.2-8.3,0-11.4
			c3.2-3.2,8.3-3.2,11.4,0L246.6,80c3.2,3.2,3.2,8.2,0,11.4l-63.2,63.3C181.8,156.2,179.7,157,177.6,157"/>
	</defs>
	<clipPath id="SVGID_14_">
		<use xlink:href="#SVGID_13_"  style="overflow:visible;"/>
	</clipPath>
	<g class="st6">
		<defs>
			<rect id="SVGID_15_" x="-2194.7" y="-4333.8" width="4033.5" height="7174.3"/>
		</defs>
		<clipPath id="SVGID_16_">
			<use xlink:href="#SVGID_15_"  style="overflow:visible;"/>
		</clipPath>
		<rect x="115.8" y="-39.4" class="st7" width="186.9" height="250.2"/>
	</g>
</g>
</svg>
